<svg width="100" height="38" viewBox="0 0 100 38" fill="none" xmlns="http://www.w3.org/2000/svg">
<path d="M1.03083 18.5192V0.131342H3.33179V8.14321H5.7121V10.376H3.33179V18.5192H1.03083ZM7.03449 10.376V8.14321H9.38834V0.131342H11.7158V18.5192H9.38834V10.376H7.03449Z" fill="white"/>
<path d="M13.7787 14.6315V8.14321C13.7787 7.32014 14.149 6.51457 14.8895 5.72652C15.8063 4.78085 16.9524 4.30802 18.3277 4.30802V6.43576C17.2874 6.43576 16.5645 6.86482 16.159 7.72292C16.0356 7.9856 15.9739 8.24829 15.9739 8.51097V14.29C15.9739 14.938 16.2736 15.4896 16.8731 15.9449C17.2962 16.2602 17.7811 16.4178 18.3277 16.4178V18.5455C16.6527 18.5455 15.3567 17.8713 14.4399 16.5228C13.9991 15.8574 13.7787 15.2269 13.7787 14.6315ZM19.465 18.5455V16.4178C20.3995 16.4178 21.0695 15.9975 21.475 15.1569C21.6161 14.8767 21.6866 14.6052 21.6866 14.3426V8.51097C21.6866 7.79297 21.378 7.22382 20.7609 6.80352C20.373 6.55835 19.9322 6.43576 19.4385 6.43576V4.30802C21.0606 4.30802 22.3125 4.96473 23.1941 6.27815C23.6349 6.92611 23.8553 7.54779 23.8553 8.14321V14.6315C23.8553 15.4896 23.485 16.3214 22.7445 17.127C21.8805 18.0552 20.7874 18.528 19.465 18.5455Z" fill="white"/>
<path d="M25.8653 14.7366V4.33429H28.1134V14.4739C28.1134 15.1043 28.4308 15.6297 29.0655 16.05C29.4887 16.3127 29.9559 16.444 30.4673 16.444V18.6506C28.7746 18.6506 27.4698 17.9939 26.553 16.6805C26.0946 16.015 25.8653 15.367 25.8653 14.7366ZM31.631 18.6506V16.444C32.5831 16.444 33.2795 16.0675 33.7203 15.3145C33.879 15.0343 33.9584 14.7541 33.9584 14.4739V4.33429H36.2064V14.7366C36.2064 15.5597 35.8274 16.374 35.0692 17.1796C34.1523 18.1427 33.0062 18.6331 31.631 18.6506Z" fill="white"/>
<path d="M37.7404 14.7891L39.8298 14.3951C39.8298 15.1832 40.2441 15.8048 41.0728 16.2602C41.4784 16.4528 41.8663 16.5579 42.2365 16.5754V18.6506C40.5262 18.6506 39.2479 18.0377 38.4016 16.8118C37.9608 16.1638 37.7404 15.4896 37.7404 14.7891ZM37.8727 8.32709C37.8727 6.73347 38.6044 5.55139 40.0678 4.78085C40.7731 4.4131 41.4784 4.22922 42.1836 4.22922V6.27815C41.3726 6.27815 40.7466 6.61089 40.3058 7.27635C40.0766 7.60909 39.962 7.95933 39.962 8.32709C39.962 8.88748 40.4028 9.3428 41.2844 9.69305C41.9544 9.97325 43.2504 10.341 45.1722 10.7963C46.3712 11.0415 47.2264 11.6282 47.7377 12.5563C48.0022 13.0467 48.1344 13.5983 48.1344 14.2112C48.1344 15.8924 47.4556 17.1358 46.0979 17.9413C45.3045 18.4142 44.3964 18.6506 43.3738 18.6506V16.5754C44.1849 16.5754 44.8637 16.2952 45.4103 15.7348C45.7982 15.332 45.9921 14.8592 45.9921 14.3163C45.9921 13.6158 45.2957 13.0554 43.9028 12.6351C43.5501 12.53 42.9859 12.3812 42.2101 12.1885C41.3814 11.9959 40.7819 11.8383 40.4116 11.7157C39.0716 11.1904 38.2605 10.3935 37.9784 9.32529C37.9079 9.01007 37.8727 8.67734 37.8727 8.32709ZM43.3473 6.30442V4.22922C44.8637 4.22922 46.0891 4.78961 47.0236 5.9104C47.6054 6.6284 47.8964 7.38143 47.8964 8.16948L45.807 8.51097C45.807 7.54779 45.278 6.87357 44.2201 6.4883C43.9028 6.36572 43.6118 6.30442 43.3473 6.30442Z" fill="white"/>
<path d="M49.6948 14.6315V8.11694C49.7125 7.31138 50.1004 6.51457 50.8585 5.72652C51.7754 4.79837 52.8862 4.32553 54.191 4.30802V6.38323C53.3446 6.38323 52.6834 6.75099 52.2074 7.4865C52.0134 7.80172 51.9164 8.09068 51.9164 8.35336V10.1396H57.8408V8.35336C57.8408 7.56531 57.4352 6.9874 56.6242 6.61964C56.2539 6.44452 55.8748 6.35696 55.4869 6.35696V4.30802C56.7035 4.30802 57.7879 4.73707 58.74 5.59518C59.5334 6.3482 59.9389 7.18004 59.9566 8.09068V12.2674H51.9164V14.6315C51.9164 15.1219 52.1986 15.5772 52.7628 15.9975C53.2212 16.3127 53.7061 16.4703 54.2174 16.4703V18.5192C52.6129 18.5192 51.3522 17.8713 50.4354 16.5754C49.9417 15.8924 49.6948 15.2444 49.6948 14.6315ZM55.4869 18.5192V16.444C56.5448 16.444 57.3382 15.9887 57.8672 15.0781C57.973 14.8854 58.0523 14.7016 58.1052 14.5264L59.983 15.2094C59.6657 16.4178 58.9427 17.3284 57.8143 17.9413C57.0914 18.3266 56.3156 18.5192 55.4869 18.5192Z" fill="white"/>
<path d="M61.279 0.131342H63.6064L68.3141 16.1025L67.4678 18.5192H66.6479L61.279 0.131342ZM67.7322 9.87693L71.0118 0.131342H73.3392C73.1805 0.639198 72.5193 2.67062 71.3556 6.22562C69.9979 10.3585 69.2221 12.7314 69.0282 13.3444H68.7637L67.7322 9.87693Z" fill="white"/>
<path d="M74.6087 13.3969V4.75459C74.6087 3.82643 75.0054 2.88077 75.7988 1.9176C76.8567 0.656711 78.1968 0.0175123 79.8189 0V2.28535C78.7433 2.28535 77.9058 2.82823 77.3064 3.914C77.0595 4.38683 76.9361 4.80712 76.9361 5.17488V13.3969C76.9361 14.5002 77.4827 15.3583 78.5758 15.9712C79.0343 16.2339 79.4398 16.3652 79.7924 16.3652V18.6506C78.7874 18.6506 77.7824 18.2916 76.7774 17.5736C75.3492 16.5228 74.6263 15.1306 74.6087 13.3969ZM81.2471 18.6506V16.3652C81.8642 16.3652 82.4901 16.0938 83.1249 15.5509C83.7949 14.9555 84.1387 14.2375 84.1563 13.3969V5.17488C84.1563 4.4919 83.8742 3.83519 83.31 3.20475C82.7281 2.60933 82.0405 2.30287 81.2471 2.28535V0C83.0279 0 84.4561 0.761784 85.5316 2.28535C86.1487 3.16097 86.4573 3.98404 86.4573 4.75459V13.3969C86.4573 15.3408 85.5845 16.8293 83.839 17.8625C82.9221 18.3879 82.0581 18.6506 81.2471 18.6506Z" fill="white"/>
<path d="M88.5996 18.5192H90.9005V0.131342H88.5996V18.5192ZM92.2229 10.2972H95.0793C97.3891 10.2797 98.8349 9.4041 99.4167 7.67038C99.646 6.96989 99.7606 6.13806 99.7606 5.17488C99.7606 1.97013 98.3059 0.288953 95.3967 0.131342C95.2909 0.131342 95.1851 0.131342 95.0793 0.131342H92.2229V2.33789H94.709C96.4898 2.37291 97.3891 3.31858 97.4067 5.17488C97.3714 7.08372 96.481 8.0469 94.7355 8.06441H92.2229V10.2972Z" fill="white"/>
<path d="M2.14855 34.6466L0.234716 31.5801H0.956918L2.6902 34.4045H3.89086V31.5801H4.58598V34.4045H5.78664L7.5109 31.5801H8.24213L6.31927 34.6466L8.47684 37.9462H7.74562L5.87692 34.9604H4.58598V37.9462H3.89086V34.9604H2.59993L0.731229 37.9462H0L2.14855 34.6466Z" fill="white"/>
<path d="M11.0345 37.0047L15.0066 31.5801H15.5302V37.9462H14.8982V32.6113L10.9893 37.9462H10.4116V31.5801H11.0345V37.0047Z" fill="white"/>
<path d="M19.6923 33.2658C19.6201 34.1086 19.5268 34.8289 19.4124 35.4267C19.3041 36.0244 19.1657 36.5146 18.9972 36.8971C18.8347 37.2737 18.6361 37.5517 18.4013 37.731C18.1726 37.9044 17.9018 37.991 17.5889 37.991L17.4805 37.3903C17.6009 37.3843 17.7152 37.3604 17.8236 37.3186C17.9379 37.2767 18.0463 37.202 18.1486 37.0944C18.2509 36.9808 18.3472 36.8284 18.4374 36.6371C18.5277 36.4399 18.612 36.1888 18.6902 35.884C18.7685 35.5731 18.8377 35.1995 18.8979 34.7632C18.9641 34.3268 19.0212 33.8098 19.0694 33.212L19.2048 31.5801H22.4637V37.9462H21.8408V32.136H19.7826L19.6923 33.2658Z" fill="white"/>
<path d="M27.7754 37.991C27.3301 37.991 26.9208 37.9014 26.5477 37.722C26.1806 37.5367 25.8646 37.2947 25.5998 36.9958C25.335 36.6909 25.1304 36.3442 24.9859 35.9557C24.8415 35.5671 24.7693 35.1696 24.7693 34.7632C24.7693 34.3388 24.8445 33.9323 24.995 33.5438C25.1514 33.1552 25.3651 32.8115 25.6359 32.5126C25.9067 32.2138 26.2257 31.9776 26.5928 31.8043C26.9599 31.625 27.3572 31.5353 27.7845 31.5353C28.2298 31.5353 28.6361 31.6309 29.0032 31.8222C29.3763 32.0075 29.6923 32.2526 29.9511 32.5575C30.2159 32.8623 30.4205 33.209 30.5649 33.5976C30.7094 33.9801 30.7816 34.3716 30.7816 34.7721C30.7816 35.1965 30.7034 35.603 30.5469 35.9916C30.3964 36.3801 30.1858 36.7238 29.915 37.0227C29.6502 37.3156 29.3342 37.5517 28.9671 37.731C28.5999 37.9044 28.2027 37.991 27.7754 37.991ZM25.4012 34.7632C25.4012 35.1099 25.4584 35.4446 25.5727 35.7674C25.6871 36.0842 25.8496 36.3681 26.0602 36.6192C26.2708 36.8643 26.5206 37.0615 26.8095 37.211C27.0984 37.3544 27.4204 37.4262 27.7754 37.4262C28.1365 37.4262 28.4645 37.3484 28.7594 37.193C29.0543 37.0376 29.3041 36.8344 29.5087 36.5833C29.7133 36.3323 29.8698 36.0483 29.9781 35.7315C30.0925 35.4147 30.1497 35.0919 30.1497 34.7632C30.1497 34.4165 30.0895 34.0847 29.9691 33.7679C29.8548 33.4451 29.6923 33.1612 29.4816 32.9161C29.271 32.671 29.0212 32.4768 28.7324 32.3333C28.4435 32.1839 28.1245 32.1091 27.7754 32.1091C27.4143 32.1091 27.0863 32.1869 26.7914 32.3423C26.4965 32.4917 26.2468 32.692 26.0422 32.943C25.8375 33.1941 25.678 33.478 25.5637 33.7948C25.4554 34.1116 25.4012 34.4344 25.4012 34.7632Z" fill="white"/>
<path d="M37.0284 29.7331C37.0164 30.02 36.893 30.2501 36.6583 30.4235C36.4296 30.5909 36.1106 30.6745 35.7014 30.6745C35.2921 30.6745 34.9702 30.5909 34.7354 30.4235C34.5067 30.2501 34.3864 30.02 34.3743 29.7331H34.7625C34.7625 29.8108 34.7866 29.8855 34.8347 29.9572C34.8829 30.029 34.9491 30.0917 35.0334 30.1455C35.1176 30.1993 35.2169 30.2442 35.3313 30.28C35.4456 30.3099 35.572 30.3249 35.7104 30.3249C35.9692 30.3249 36.1829 30.2711 36.3514 30.1635C36.5259 30.0499 36.6252 29.9064 36.6493 29.7331H37.0284ZM33.6883 37.0047L37.6604 31.5801H38.184V37.9462H37.552V32.6113L33.6431 37.9462H33.0654V31.5801H33.6883V37.0047Z" fill="white"/>
<path d="M44.9088 34.4045H45.8838L47.9782 31.5801H48.7004L46.4525 34.6466L48.9351 37.9462H48.2129L45.938 34.9604H44.9088V37.9462H44.2859V31.5801H44.9088V34.4045Z" fill="white"/>
<path d="M53.1258 37.991C52.6805 37.991 52.2712 37.9014 51.8981 37.722C51.531 37.5367 51.215 37.2947 50.9502 36.9958C50.6854 36.6909 50.4808 36.3442 50.3363 35.9557C50.1919 35.5671 50.1197 35.1696 50.1197 34.7632C50.1197 34.3388 50.1949 33.9323 50.3454 33.5438C50.5019 33.1552 50.7155 32.8115 50.9863 32.5126C51.2572 32.2138 51.5761 31.9776 51.9432 31.8043C52.3104 31.625 52.7076 31.5353 53.1349 31.5353C53.5802 31.5353 53.9865 31.6309 54.3536 31.8222C54.7267 32.0075 55.0427 32.2526 55.3015 32.5575C55.5663 32.8623 55.7709 33.209 55.9154 33.5976C56.0598 33.9801 56.132 34.3716 56.132 34.7721C56.132 35.1965 56.0538 35.603 55.8973 35.9916C55.7468 36.3801 55.5362 36.7238 55.2654 37.0227C55.0006 37.3156 54.6846 37.5517 54.3175 37.731C53.9504 37.9044 53.5532 37.991 53.1258 37.991ZM50.7516 34.7632C50.7516 35.1099 50.8088 35.4446 50.9231 35.7674C51.0375 36.0842 51.2 36.3681 51.4106 36.6192C51.6213 36.8643 51.871 37.0615 52.1599 37.211C52.4488 37.3544 52.7708 37.4262 53.1258 37.4262C53.4869 37.4262 53.8149 37.3484 54.1098 37.193C54.4047 37.0376 54.6545 36.8344 54.8591 36.5833C55.0638 36.3323 55.2202 36.0483 55.3286 35.7315C55.4429 35.4147 55.5001 35.0919 55.5001 34.7632C55.5001 34.4165 55.4399 34.0847 55.3195 33.7679C55.2052 33.4451 55.0427 33.1612 54.8321 32.9161C54.6214 32.671 54.3716 32.4768 54.0828 32.3333C53.7939 32.1839 53.4749 32.1091 53.1258 32.1091C52.7647 32.1091 52.4367 32.1869 52.1418 32.3423C51.847 32.4917 51.5972 32.692 51.3926 32.943C51.1879 33.1941 51.0285 33.478 50.9141 33.7948C50.8058 34.1116 50.7516 34.4344 50.7516 34.7632Z" fill="white"/>
<path d="M64.0851 37.9462V32.7189L61.7469 36.7627H61.3768L59.0387 32.7189V37.9462H58.4067V31.5801H59.0567L61.5574 35.9378L64.076 31.5801H64.717V37.9462H64.0851Z" fill="white"/>
<path d="M67.4422 31.5801H72.3893V37.9462H71.7574V32.136H68.0651V37.9462H67.4422V31.5801Z" fill="white"/>
<path d="M76.5466 33.2658C76.4744 34.1086 76.3811 34.8289 76.2668 35.4267C76.1585 36.0244 76.02 36.5146 75.8515 36.8971C75.689 37.2737 75.4904 37.5517 75.2557 37.731C75.027 37.9044 74.7562 37.991 74.4432 37.991L74.3349 37.3903C74.4553 37.3843 74.5696 37.3604 74.6779 37.3186C74.7923 37.2767 74.9006 37.202 75.0029 37.0944C75.1052 36.9808 75.2015 36.8284 75.2918 36.6371C75.3821 36.4399 75.4663 36.1888 75.5446 35.884C75.6228 35.5731 75.692 35.1995 75.7522 34.7632C75.8184 34.3268 75.8756 33.8098 75.9237 33.212L76.0592 31.5801H79.3181V37.9462H78.6952V32.136H76.6369L76.5466 33.2658Z" fill="white"/>
<path d="M86.354 37.3903V37.9462H82.0479V31.5801H86.2728V32.136H82.6798V34.4314H85.8124V34.9604H82.6798V37.3903H86.354Z" fill="white"/>
<path d="M89.2643 34.4045H90.2393L92.3336 31.5801H93.0559L90.808 34.6466L93.2906 37.9462H92.5684L90.2934 34.9604H89.2643V37.9462H88.6414V31.5801H89.2643V34.4045Z" fill="white"/>
<path d="M94.4661 34.7183C94.4661 34.3358 94.5323 33.9562 94.6647 33.5796C94.8032 33.1971 95.0018 32.8563 95.2606 32.5575C95.5193 32.2586 95.8383 32.0165 96.2175 31.8312C96.5966 31.6399 97.0269 31.5443 97.5084 31.5443C98.0801 31.5443 98.5676 31.6728 98.9709 31.9298C99.3801 32.1869 99.681 32.5216 99.8736 32.934L99.3771 33.2389C99.2748 33.0297 99.1484 32.8533 98.9979 32.7099C98.8535 32.5664 98.697 32.4499 98.5285 32.3602C98.36 32.2705 98.1855 32.2078 98.0049 32.1719C97.8244 32.1301 97.6468 32.1091 97.4723 32.1091C97.0871 32.1091 96.7471 32.1869 96.4522 32.3423C96.1573 32.4977 95.9075 32.7009 95.7029 32.952C95.5043 33.203 95.3538 33.487 95.2515 33.8038C95.1492 34.1146 95.0981 34.4314 95.0981 34.7542C95.0981 35.1069 95.1582 35.4446 95.2786 35.7674C95.405 36.0902 95.5735 36.3771 95.7841 36.6282C96.0008 36.8732 96.2536 37.0705 96.5424 37.2199C96.8373 37.3634 97.1563 37.4351 97.4994 37.4351C97.6799 37.4351 97.8635 37.4142 98.05 37.3724C98.2426 37.3245 98.4262 37.2528 98.6007 37.1572C98.7813 37.0555 98.9468 36.933 99.0972 36.7896C99.2477 36.6401 99.3741 36.4608 99.4764 36.2516L100 36.5206C99.8977 36.7597 99.7532 36.9719 99.5667 37.1572C99.3801 37.3365 99.1725 37.4889 98.9438 37.6144C98.7151 37.74 98.4713 37.8356 98.2125 37.9014C97.9598 37.9671 97.71 38 97.4633 38C97.0239 38 96.6207 37.9044 96.2536 37.7131C95.8865 37.5218 95.5705 37.2737 95.3057 36.9689C95.0409 36.658 94.8332 36.3084 94.6828 35.9198C94.5383 35.5253 94.4661 35.1248 94.4661 34.7183Z" fill="white"/>
</svg>
